<?xml version="1.0" encoding="UTF-8"?><svg id="_48x48-UF-blue-bkg" xmlns="http://www.w3.org/2000/svg" xmlns:xlink="http://www.w3.org/1999/xlink" viewBox="0 0 332 130"><defs><style>.cls-1{fill:url(#New_Gradient_Swatch_1);}.cls-1,.cls-2,.cls-3,.cls-4{stroke-width:0px;}.cls-2{fill:url(#New_Gradient_Swatch_2);}.cls-3{fill:url(#New_Gradient_Swatch_2-2);}.cls-4{fill:#222;}</style><linearGradient id="New_Gradient_Swatch_1" x1="92.48" y1="92.48" x2="42.79" y2="42.79" gradientUnits="userSpaceOnUse"><stop offset=".05" stop-color="#e6a116"/><stop offset=".13" stop-color="#e8a713"/><stop offset=".85" stop-color="#ffe500"/><stop offset=".87" stop-color="#fee509"/><stop offset=".9" stop-color="#fee622"/><stop offset=".94" stop-color="#fde74c"/><stop offset=".98" stop-color="#fbe985"/><stop offset="1" stop-color="#fbea9a"/></linearGradient><linearGradient id="New_Gradient_Swatch_2" x1="57.84" y1="37.38" x2="76.31" y2="59.48" gradientUnits="userSpaceOnUse"><stop offset="0" stop-color="#474748"/><stop offset=".5" stop-color="#363435"/><stop offset="1" stop-color="#231f20"/></linearGradient><linearGradient id="New_Gradient_Swatch_2-2" x1="41.31" y1="48.85" x2="62.79" y2="79.88" xlink:href="#New_Gradient_Swatch_2"/></defs><circle class="cls-1" cx="65" cy="65" r="43.75"/><path class="cls-4" d="m65,22.5c23.43,0,42.5,19.07,42.5,42.5s-19.07,42.5-42.5,42.5-42.5-19.07-42.5-42.5,19.07-42.5,42.5-42.5m0-2.5c-24.85,0-45,20.15-45,45s20.15,45,45,45,45-20.15,45-45-20.15-45-45-45h0Z"/><polygon class="cls-2" points="75.03 47.64 67.09 85.45 90.26 85.45 92.05 77.01 78.91 77.01 80.24 70.73 91.76 70.73 93.52 62.3 82 62.3 83.15 56.7 83.15 56.71 83.28 56.09 95.57 56.07 97.36 47.64 75.03 47.64"/><path class="cls-3" d="m46.34,85.46c-4.58,0-8.09-1.11-10.55-3.32-2.45-2.21-3.68-5.43-3.68-9.65,0-1.57.3-3.87.9-6.89l3.78-17.97h11.19l-3.86,18.07c-.21,1.04-.41,2.03-.62,2.98-.19.95-.28,1.78-.28,2.49,0,1.49.38,2.65,1.13,3.47.77.83,1.85,1.25,3.24,1.25,1.61,0,2.9-.56,3.86-1.69.98-1.12,1.73-2.96,2.26-5.5l4.48-21.08h11.16l-4.58,21.73c-.93,4.23-2.16,7.47-3.7,9.7-1.53,2.23-3.5,3.85-5.92,4.87-2.4,1.02-5.34,1.53-8.82,1.53Z"/><path class="cls-4" d="m155.81,68.39c0,9.37-4.37,14.06-13.1,14.06s-12.71-4.58-12.71-13.73v-18.02h7.05v18.11c0,5.05,1.97,7.57,5.92,7.57s5.81-2.44,5.81-7.31v-18.37h7.03v17.7Zm13.02,13.51h-6.88v-32.99h6.88v32.99Zm19.26-.26c-1.02.54-2.55.81-4.59.81-4.85,0-7.27-2.52-7.27-7.55v-10.21h-3.61v-5.07h3.61v-4.81l6.86-1.96v6.77h5.01v5.07h-5.01v9.01c0,2.32.92,3.48,2.76,3.48.73,0,1.47-.21,2.24-.63v5.09Zm18.43-15.82c-.83-.45-1.79-.67-2.9-.67-1.5,0-2.66.55-3.5,1.65-.84,1.09-1.26,2.58-1.26,4.46v10.64h-6.88v-22.29h6.88v4.14h.09c1.09-3.02,3.05-4.53,5.88-4.53.72,0,1.29.09,1.7.26v6.33Zm21.76,16.08h-6.51v-3.2h-.09c-1.5,2.5-3.71,3.74-6.64,3.74-2.16,0-3.87-.61-5.11-1.83-1.23-1.23-1.85-2.87-1.85-4.92,0-4.32,2.56-6.82,7.68-7.49l6.05-.81c0-2.44-1.32-3.65-3.96-3.65s-5.18.79-7.57,2.37v-5.18c.96-.49,2.26-.93,3.92-1.31,1.67-.38,3.19-.57,4.55-.57,6.36,0,9.53,3.17,9.53,9.51v13.32Zm-6.46-9.05v-1.5l-4.05.52c-2.23.29-3.35,1.3-3.35,3.03,0,.78.27,1.43.8,1.94.55.49,1.29.74,2.22.74,1.29,0,2.34-.44,3.16-1.33.81-.9,1.22-2.03,1.22-3.39Zm31.3,9.05h-18.72v-31.21h18v5.72h-10.97v6.94h10.21v5.7h-10.21v7.14h11.69v5.7Zm26.14,0h-6.88v-3.07h-.09c-1.57,2.41-3.87,3.61-6.9,3.61-2.79,0-5.03-.98-6.72-2.94-1.7-1.97-2.55-4.72-2.55-8.25s.94-6.64,2.81-8.86c1.87-2.22,4.32-3.33,7.35-3.33,2.87,0,4.88,1.03,6.01,3.09h.09v-13.25h6.88v32.99Zm-6.75-10.84v-1.68c0-1.45-.42-2.66-1.26-3.61-.84-.96-1.94-1.44-3.29-1.44-1.52,0-2.71.6-3.57,1.81-.86,1.19-1.28,2.83-1.28,4.92,0,1.96.41,3.47,1.24,4.53.83,1.06,1.97,1.59,3.44,1.59s2.52-.56,3.39-1.68c.89-1.12,1.33-2.6,1.33-4.44Zm16.02-14.97c-1.16,0-2.11-.34-2.85-1.02-.74-.7-1.11-1.55-1.11-2.55s.37-1.87,1.11-2.53c.74-.65,1.69-.98,2.85-.98s2.13.33,2.85.98c.74.65,1.11,1.5,1.11,2.53s-.37,1.9-1.11,2.57c-.72.67-1.68,1-2.85,1Zm3.39,25.81h-6.88v-22.29h6.88v22.29Zm19.26-.26c-1.02.54-2.55.81-4.59.81-4.85,0-7.27-2.52-7.27-7.55v-10.21h-3.61v-5.07h3.61v-4.81l6.85-1.96v6.77h5.01v5.07h-5.01v9.01c0,2.32.92,3.48,2.76,3.48.73,0,1.47-.21,2.24-.63v5.09Z"/></svg>